<svg width="147" height="50" viewBox="0 0 147 50" fill="none" xmlns="http://www.w3.org/2000/svg">
<path d="M64.5556 24.8239C64.5556 13.3002 56.0089 3.95865 45.4656 3.95865C42.9437 3.95865 40.5408 4.49464 38.3341 5.46708C35.2937 2.09035 31.0694 0 26.3967 0C17.4297 0 10.1019 7.71822 9.67459 17.4043C4.00714 19.9158 0 25.9878 0 33.0934C0 42.4273 6.92843 50 15.4681 50C17.4367 50 19.3141 49.6018 21.0445 48.8668C21.0445 48.8668 26.4107 46.5697 31.6648 46.0949C36.6527 45.6432 44.639 45.6891 45.4236 45.6891C45.4376 45.6891 45.4446 45.6891 45.4586 45.6891C45.4656 45.6891 45.4656 45.6891 45.4726 45.6891C45.4867 45.6891 45.4937 45.6891 45.4937 45.6891C56.0229 45.6738 64.5556 36.34 64.5556 24.8239Z" fill="#FF588A"/>
<path d="M42.151 33.4746C37.1279 33.4746 33.0373 29.0052 33.0373 23.5169C33.0373 18.0287 37.1279 13.5593 42.151 13.5593C47.1742 13.5593 51.2647 18.0287 51.2647 23.5169C51.2647 29.0052 47.1742 33.4746 42.151 33.4746ZM42.151 18.1908C39.4664 18.1908 37.2762 20.5837 37.2762 23.5169C37.2762 26.4502 39.4664 28.8431 42.151 28.8431C44.8357 28.8431 47.0258 26.4502 47.0258 23.5169C47.0258 20.5837 44.8357 18.1908 42.151 18.1908Z" fill="white"/>
<path d="M53.9229 32.1009C54.9715 32.1009 55.8216 31.1753 55.8216 30.0335C55.8216 28.8917 54.9715 27.9661 53.9229 27.9661C52.8743 27.9661 52.0242 28.8917 52.0242 30.0335C52.0242 31.1753 52.8743 32.1009 53.9229 32.1009Z" fill="white"/>
<path d="M31.5183 16.277C31.5114 15.0069 30.5781 13.9831 29.4289 13.9831C29.4219 13.9831 29.4219 13.9831 29.4149 13.9831C28.2588 13.9907 27.3324 15.03 27.3394 16.3078C27.3394 16.3309 27.3324 18.2938 26.7125 21.0034C26.2947 22.8201 25.5215 25.2757 24.1216 27.7236C23.0629 27.0231 21.6212 25.9069 20.4929 24.4751C18.4661 21.9041 17.9995 18.4709 17.9925 18.4401V18.4478H17.9786C17.8114 17.3547 16.9547 16.5233 15.9169 16.5233C14.7608 16.5233 13.8275 17.5548 13.8275 18.8327C13.8275 19.0482 13.8553 19.256 13.9041 19.4562C14.1061 20.6724 14.907 24.4367 17.3378 27.5081C18.6542 29.1785 20.2352 30.4717 21.5098 31.3647C17.2124 36.4606 14.1966 37.4998 14.1409 37.5306C13.0892 38.0541 12.6226 39.4243 13.0962 40.5866C13.4444 41.4411 14.2036 41.9492 15.0045 41.9492C15.2901 41.9492 15.5826 41.8799 15.8612 41.7413C16.1607 41.5951 20.1864 40.1248 25.5773 33.2814C31.5044 25.7453 31.5183 16.6619 31.5183 16.277Z" fill="white"/>
<path d="M62.372 3.50758C61.2853 3.10687 60.1087 3.76188 59.7488 4.97172L54.7378 25.0767C54.7032 25.2 54.6824 25.3232 54.6824 25.4542C54.6824 26.1401 55.1807 26.6949 55.7967 26.6949C56.2605 26.6949 56.6619 26.379 56.828 25.9243H56.8349L63.687 6.42815C64.0539 5.22602 63.4656 3.916 62.372 3.50758Z" fill="white"/>
<path d="M80.6869 36.9915C78.6616 36.9915 76.9807 36.6751 75.644 36.0424C74.3073 35.387 73.2947 34.5395 72.6061 33.5C71.9175 32.4604 71.5529 31.3531 71.5124 30.178C71.5124 29.9972 71.5732 29.839 71.6947 29.7034C71.8365 29.5452 71.9985 29.4661 72.1808 29.4661H76.0085C76.2921 29.4661 76.5047 29.5226 76.6465 29.6356C76.8085 29.7486 76.9503 29.8955 77.0718 30.0763C77.2338 30.4153 77.4566 30.7429 77.7401 31.0593C78.0439 31.3757 78.4287 31.6356 78.8945 31.839C79.3806 32.0198 79.9781 32.1102 80.6869 32.1102C81.8616 32.1102 82.7426 31.9068 83.3299 31.5C83.9375 31.0932 84.2413 30.5395 84.2413 29.839C84.2413 29.3418 84.0792 28.935 83.7552 28.6186C83.4312 28.2797 82.9046 27.9859 82.1755 27.7373C81.4667 27.4661 80.5148 27.1949 79.3199 26.9237C77.7806 26.5621 76.4642 26.0989 75.3706 25.5339C74.2972 24.9463 73.4769 24.1893 72.9099 23.2627C72.3428 22.3136 72.0592 21.1384 72.0592 19.7373C72.0592 18.3588 72.4035 17.1271 73.0921 16.0424C73.801 14.9576 74.7832 14.1102 76.0389 13.5C77.2946 12.8898 78.7832 12.5847 80.5046 12.5847C81.9021 12.5847 83.1274 12.7881 84.1805 13.1949C85.2539 13.6017 86.1552 14.1441 86.8843 14.822C87.6133 15.5 88.1602 16.2232 88.5247 16.9915C88.9095 17.7373 89.1121 18.4717 89.1323 19.1949C89.1323 19.3757 89.0715 19.5452 88.95 19.7034C88.8285 19.839 88.6766 19.9068 88.4943 19.9068H84.4843C84.2615 19.9068 84.0691 19.8616 83.9071 19.7712C83.7451 19.6808 83.6033 19.5339 83.4818 19.3305C83.3603 18.8333 83.0362 18.404 82.5097 18.0424C82.0033 17.6582 81.335 17.4661 80.5046 17.4661C79.6135 17.4661 78.9148 17.6469 78.4085 18.0085C77.9224 18.3475 77.6794 18.8785 77.6794 19.6017C77.6794 20.0537 77.811 20.4492 78.0743 20.7881C78.3578 21.1271 78.8135 21.4209 79.4414 21.6695C80.0895 21.9181 80.9705 22.178 82.0844 22.4492C83.9274 22.8333 85.4159 23.3192 86.5501 23.9068C87.6842 24.4718 88.5146 25.2175 89.0412 26.1441C89.5677 27.048 89.831 28.1893 89.831 29.5678C89.831 31.1045 89.4361 32.4379 88.6462 33.5678C87.8766 34.6751 86.8032 35.5226 85.4261 36.1102C84.0489 36.6977 82.4692 36.9915 80.6869 36.9915Z" fill="#215988"/>
<path d="M93.2976 36.6525C93.0748 36.6525 92.8925 36.5734 92.7507 36.4153C92.609 36.2571 92.5381 36.0537 92.5381 35.8051V13.4322C92.5381 13.1836 92.609 12.9802 92.7507 12.822C92.8925 12.6638 93.0748 12.5847 93.2976 12.5847H97.1861C97.4089 12.5847 97.5911 12.6638 97.7329 12.822C97.8747 12.9802 97.9456 13.1836 97.9456 13.4322V20.9915C98.4924 20.291 99.1607 19.7373 99.9506 19.3305C100.761 18.9011 101.692 18.6864 102.745 18.6864C103.92 18.6864 104.963 18.9802 105.875 19.5678C106.806 20.1554 107.535 21.0254 108.062 22.178C108.588 23.3079 108.852 24.6977 108.852 26.3475V35.8051C108.852 36.0537 108.781 36.2571 108.639 36.4153C108.497 36.5734 108.315 36.6525 108.092 36.6525H104.173C103.971 36.6525 103.788 36.5734 103.626 36.4153C103.485 36.2571 103.414 36.0537 103.414 35.8051V26.5508C103.414 25.4887 103.181 24.6751 102.715 24.1102C102.27 23.5226 101.601 23.2288 100.71 23.2288C99.8797 23.2288 99.2114 23.5226 98.705 24.1102C98.1987 24.6751 97.9456 25.4887 97.9456 26.5508V35.8051C97.9456 36.0537 97.8747 36.2571 97.7329 36.4153C97.5911 36.5734 97.4089 36.6525 97.1861 36.6525H93.2976Z" fill="#215988"/>
<path d="M119.77 36.9915C118.068 36.9915 116.63 36.6864 115.456 36.0763C114.301 35.4661 113.41 34.596 112.782 33.4661C112.175 32.3136 111.831 30.9463 111.75 29.3644C111.729 28.9124 111.719 28.404 111.719 27.839C111.719 27.2514 111.729 26.7429 111.75 26.3136C111.831 24.709 112.195 23.3418 112.843 22.2119C113.491 21.0819 114.393 20.2119 115.547 19.6017C116.722 18.9915 118.129 18.6864 119.77 18.6864C121.43 18.6864 122.838 18.9915 123.992 19.6017C125.167 20.2119 126.078 21.0819 126.726 22.2119C127.375 23.3418 127.739 24.709 127.82 26.3136C127.84 26.7429 127.85 27.2514 127.85 27.839C127.85 28.404 127.84 28.9124 127.82 29.3644C127.739 30.9463 127.385 32.3136 126.757 33.4661C126.149 34.596 125.258 35.4661 124.083 36.0763C122.929 36.6864 121.491 36.9915 119.77 36.9915ZM119.77 32.8559C120.681 32.8559 121.339 32.5508 121.744 31.9407C122.17 31.3305 122.413 30.4153 122.473 29.1949C122.494 28.8559 122.504 28.404 122.504 27.839C122.504 27.274 122.494 26.822 122.473 26.483C122.413 25.2853 122.17 24.3814 121.744 23.7712C121.339 23.1384 120.681 22.822 119.77 22.822C118.879 22.822 118.22 23.1384 117.795 23.7712C117.37 24.3814 117.137 25.2853 117.096 26.483C117.076 26.822 117.066 27.274 117.066 27.839C117.066 28.404 117.076 28.8559 117.096 29.1949C117.137 30.4153 117.37 31.3305 117.795 31.9407C118.22 32.5508 118.879 32.8559 119.77 32.8559Z" fill="#215988"/>
<path d="M131.598 43.0932C131.375 43.0932 131.193 43.0141 131.051 42.8559C130.909 42.6977 130.838 42.4943 130.838 42.2458V19.8729C130.838 19.6243 130.909 19.4209 131.051 19.2627C131.193 19.1045 131.375 19.0254 131.598 19.0254H135.031C135.233 19.0254 135.405 19.1045 135.547 19.2627C135.709 19.4209 135.79 19.6243 135.79 19.8729V21.1271C136.256 20.4266 136.874 19.8503 137.643 19.3983C138.413 18.9237 139.365 18.6864 140.499 18.6864C141.512 18.6864 142.403 18.8672 143.172 19.2288C143.942 19.5678 144.6 20.0763 145.147 20.7542C145.694 21.4322 146.119 22.2571 146.423 23.2288C146.747 24.2006 146.929 25.3192 146.97 26.5847C146.99 27.0367 147 27.4548 147 27.839C147 28.2232 146.99 28.6412 146.97 29.0932C146.929 30.3136 146.757 31.4096 146.453 32.3814C146.149 33.3531 145.724 34.178 145.177 34.8559C144.63 35.5339 143.962 36.065 143.172 36.4492C142.403 36.8107 141.512 36.9915 140.499 36.9915C139.506 36.9915 138.636 36.7994 137.886 36.4153C137.157 36.0085 136.55 35.4435 136.064 34.7203V42.2458C136.064 42.4943 135.993 42.6977 135.851 42.8559C135.709 43.0141 135.527 43.0932 135.304 43.0932H131.598ZM138.858 32.4492C139.547 32.4492 140.084 32.291 140.468 31.9746C140.853 31.6582 141.127 31.2288 141.289 30.6864C141.471 30.1441 141.582 29.5452 141.623 28.8898C141.663 28.1893 141.663 27.4887 141.623 26.7881C141.582 26.1328 141.471 25.5339 141.289 24.9915C141.127 24.4492 140.853 24.0198 140.468 23.7034C140.084 23.387 139.547 23.2288 138.858 23.2288C138.19 23.2288 137.653 23.3983 137.248 23.7373C136.843 24.0537 136.55 24.4718 136.367 24.9915C136.185 25.5113 136.084 26.0763 136.064 26.6864C136.043 27.1158 136.033 27.5339 136.033 27.9407C136.033 28.3475 136.043 28.7768 136.064 29.2288C136.084 29.7938 136.195 30.3249 136.398 30.822C136.6 31.2966 136.904 31.6921 137.309 32.0085C137.714 32.3023 138.231 32.4492 138.858 32.4492Z" fill="#215988"/>
</svg>
