<svg width="170" height="30" viewBox="0 0 170 30" fill="none" xmlns="http://www.w3.org/2000/svg">
<path d="M143.827 4.35382C140.915 5.39513 138.897 7.29399 137.571 10.2954C136.706 12.2249 136.125 12.8575 136.125 16.0121C136.125 19.6567 136.502 20.3694 138.059 22.1763C139.99 24.3815 144.317 24.5675 146.623 22.6074L147.661 21.7192L147.949 22.6992C148.18 23.6487 148.266 23.6793 149.823 23.7712C151.697 23.8631 151.466 24.2918 152.36 19.3916C152.705 17.5233 153.051 15.7776 153.109 15.4713C153.253 14.9813 152.936 14.9507 149.534 14.9507C145.902 14.9507 145.787 14.9813 145.614 15.6245C145.355 16.7577 145.383 16.7883 146.594 16.7883C147.603 16.7883 147.747 16.8802 147.747 17.4927C147.747 18.8096 146.508 20.8923 145.412 21.4742C144.144 22.1173 143.596 21.9336 143.106 20.7391C142.414 18.9015 143.452 11.1836 144.778 8.39655C145.441 6.98772 146.623 5.76265 147.315 5.76265C148.353 5.76265 148.612 6.37518 148.612 8.88658V11.2755H150.889C153.455 11.2755 153.236 11.5205 153.784 8.39655C153.957 7.38586 154.176 6.31393 154.262 6.03829C154.349 5.67077 153.945 5.3645 152.734 4.84384C150.659 3.9863 145.7 3.71066 143.827 4.35382Z" fill="#0011F8"/>
<path d="M161.555 10.3872C157.432 10.8466 155.011 13.4498 154.751 17.707C154.636 19.3608 154.751 19.9427 155.299 21.0759C156.106 22.7298 157.202 23.4648 159.508 23.8323C162.737 24.4142 166.571 23.4342 168.127 21.6272C169.828 19.6977 170.52 15.5018 169.569 13.0517C168.733 10.9385 165.735 9.9584 161.555 10.3872ZM164.178 12.9598C164.466 13.7561 164.149 17.0332 163.601 19.2689C163.198 20.8003 162.275 21.9947 161.411 21.9947C160.517 21.9947 160.286 21.0453 160.517 18.3501C160.747 15.655 161.18 14.2461 162.045 13.113C162.967 11.9798 163.803 11.9185 164.178 12.9598Z" fill="#0011F8"/>
<path d="M7.52133 4.47629C2.67448 6.24669 0.0307438 10.2148 0.00136898 15.7702C-0.0280059 18.6089 0.412617 20.2267 1.58761 21.6003C3.20323 23.5233 6.40509 24.3474 10.1651 23.8285C12.1038 23.5538 15.5994 22.3634 15.5994 21.9971C15.5994 21.9055 15.8638 20.6235 16.1575 19.1584L16.7157 16.5028H14.0425H11.3401L10.8407 18.2732C9.98882 21.2035 8.40258 22.5465 7.08071 21.4477C6.49321 20.9593 6.40509 20.654 6.43446 18.4258C6.49321 14.5187 7.60945 9.57381 8.93132 7.46765C9.81257 6.06354 10.6938 5.60568 11.6338 6.06354C12.3388 6.39931 12.3682 6.55193 12.3682 8.87176V11.3137H14.865C17.685 11.3137 17.3032 11.7105 18.0669 7.86446L18.4781 5.78882L17.685 5.39201C15.1294 4.01843 9.98882 3.56057 7.52133 4.47629Z" fill="#0011F8"/>
<path d="M71.88 7.16239C71.175 8.3223 69.4712 9.54326 67.7969 10.1232C66.5044 10.5811 66.24 10.7947 66.0931 11.5884C65.9169 12.5041 65.9169 12.5346 67.0625 12.5346C68.12 12.5346 68.2375 12.5957 68.12 13.2061C66.4163 21.875 66.4163 22.1192 67.9731 23.3401C68.6781 23.8896 69.2069 23.9811 71.4394 23.9506C72.8787 23.9201 74.1125 23.859 74.1712 23.798C74.23 23.7369 74.3768 23.218 74.4943 22.6686C74.6706 21.7224 74.6412 21.6918 73.76 21.6918C73.2606 21.6918 72.7906 21.5087 72.7025 21.2645C72.6143 21.0203 72.9081 18.9752 73.3487 16.6859L74.1418 12.5346H75.3756C76.5506 12.5346 76.6387 12.4736 76.7562 11.6189C76.8737 10.7337 76.8443 10.7032 75.7575 10.7032C74.4943 10.7032 74.4943 10.7032 75.0525 8.16968L75.4637 6.42981H73.9068C72.585 6.42981 72.2912 6.55191 71.88 7.16239Z" fill="#0011F8"/>
<path d="M55.669 10.4285C53.2015 10.6727 50.8516 11.6495 50.8516 12.4431C50.8516 12.7483 50.7634 13.2978 50.6753 13.6641C50.4991 14.3356 50.5578 14.3661 52.4965 14.3661C54.4647 14.3356 54.5528 14.3051 55.1109 13.3588C55.8453 12.1684 57.4903 11.8326 58.1071 12.7178C58.5184 13.2978 58.6065 14.9156 58.254 15.465C58.1365 15.6481 56.8146 15.8618 55.2578 15.9534C50.5578 16.1976 48.6484 17.5406 48.6484 20.532C48.6484 21.6919 48.7953 22.1498 49.4122 22.7602C50.9397 24.378 53.7303 24.2864 55.9628 22.5771C57.2553 21.6003 57.1965 21.5698 57.7253 23.2791C57.8428 23.737 58.254 23.8286 60.1928 23.8286H62.5134L63.1596 20.532C64.4815 14.1219 64.3052 12.2294 62.2196 11.1306C61.0152 10.459 58.3421 10.1843 55.669 10.4285ZM57.7546 18.0901C57.2553 20.7151 56.2271 21.814 54.8172 21.1425C54.259 20.8677 54.0828 20.5625 54.0828 19.7994C54.1122 18.1511 55.199 17.1438 56.9615 17.1133C57.9309 17.1133 57.9309 17.1438 57.7546 18.0901Z" fill="#0011F8"/>
<path d="M84.3056 10.4286C80.9275 10.7949 78.4306 12.4126 77.4025 14.9461C76.7562 16.4723 76.7562 19.7384 77.3731 20.9899C78.6069 23.4013 81.7793 24.4391 85.9799 23.8286C89.1818 23.3708 90.0924 22.9129 90.4743 21.4783C91.003 19.5553 91.003 19.5553 88.5355 19.5553C86.2737 19.5858 86.2443 19.5858 85.6568 20.5626C85.3337 21.0815 84.7168 21.6614 84.2762 21.814C83.1012 22.2414 82.5725 21.6309 82.5725 19.8605C82.5725 17.327 82.3962 17.4186 87.1549 17.4186H91.3849L91.708 16.5944C92.1193 15.4345 92.1487 13.1147 91.708 12.2905C91.5318 11.9243 91.0618 11.4053 90.6799 11.1612C89.7693 10.5201 86.6849 10.1844 84.3056 10.4286ZM86.6262 12.5958C87.0081 12.9926 87.0962 14.3967 86.8024 15.4956C86.6262 16.1366 86.4206 16.1976 84.8637 16.1976C83.1893 16.1976 83.1306 16.1671 83.3362 15.4956C84.0999 12.8705 85.6274 11.558 86.6262 12.5958Z" fill="#0011F8"/>
<path d="M28.0881 10.8559C27.6181 11.1306 26.9131 11.7106 26.5312 12.1684C25.9731 12.8705 25.8262 12.9315 25.5912 12.5347C25.4443 12.2905 25.2975 11.7716 25.2975 11.3748C25.2975 10.7338 25.18 10.7033 22.83 10.7033H20.3919L20.0687 12.2905C19.8925 13.1757 19.305 16.1365 18.7469 18.8837L17.7188 23.8591L20.6856 23.7676L23.6818 23.676L24.5925 19.1584C25.1212 16.686 25.6793 14.4577 25.885 14.2135C26.7956 13.0841 28.2349 14.2441 28.2349 16.106V17.1133H29.8212H31.3781L32.0243 13.9999C32.5237 11.5274 32.5824 10.8559 32.2887 10.6422C31.6424 10.2454 29.0281 10.3675 28.0881 10.8559Z" fill="#0011F8"/>
<path d="M38.2253 10.8253C35.9928 11.7105 35.6697 11.8936 34.6416 13.0841C32.0566 16.0754 32.4385 21.5392 35.3466 23.0959C37.5791 24.2864 42.8078 24.2253 45.2459 22.9738C46.0978 22.5465 46.3328 22.2107 46.6265 20.9898L46.979 19.5552H44.5115C43.1603 19.5552 42.044 19.6772 42.044 19.8299C42.044 19.9825 41.6915 20.5319 41.2803 21.0508C39.6941 23.0044 38.2841 21.8139 38.6659 18.8836L38.8716 17.4185H43.1015C47.9778 17.4185 48.0365 17.3879 48.0365 14.3355C48.0659 12.382 47.5665 11.5273 45.9509 10.8253C44.7172 10.2758 39.6059 10.2758 38.2253 10.8253ZM42.8665 14.2745L42.9547 16.1975H41.0453H39.1359L39.5766 14.9155C40.1641 13.1756 41.104 12.1683 42.044 12.2904C42.7197 12.382 42.7784 12.5041 42.8665 14.2745Z" fill="#0011F8"/>
<path d="M129.029 17C127.977 17 127.125 16.1046 127.125 15C127.125 13.8954 127.977 13 129.029 13C130.08 13 130.933 13.8954 130.933 15C130.933 16.1046 130.08 17 129.029 17Z" fill="#0011F8"/>
<path d="M122.327 16.7065C121.43 16.7065 120.702 15.9424 120.702 14.9999C120.702 14.0573 121.43 13.2932 122.327 13.2932C123.224 13.2932 123.952 14.0573 123.952 14.9999C123.952 15.9424 123.224 16.7065 122.327 16.7065Z" fill="#0011F8"/>
<path d="M116.205 16.3934C115.472 16.3934 114.879 15.7695 114.879 15C114.879 14.2305 115.472 13.6067 116.205 13.6067C116.937 13.6067 117.531 14.2305 117.531 15C117.531 15.7695 116.937 16.3934 116.205 16.3934Z" fill="#0011F8"/>
<path d="M110.881 15.8666C110.425 15.8666 110.056 15.4786 110.056 15C110.056 14.5213 110.425 14.1333 110.881 14.1333C111.336 14.1333 111.706 14.5213 111.706 15C111.706 15.4786 111.336 15.8666 110.881 15.8666Z" fill="#0011F8"/>
<path d="M124.591 21.3333C123.54 21.3333 122.687 20.4378 122.687 19.3333C122.687 18.2287 123.54 17.3333 124.591 17.3333C125.643 17.3333 126.495 18.2287 126.495 19.3333C126.495 20.4378 125.643 21.3333 124.591 21.3333Z" fill="#0011F8"/>
<path d="M117.89 21.0398C116.992 21.0398 116.265 20.2757 116.265 19.3331C116.265 18.3906 116.992 17.6265 117.89 17.6265C118.787 17.6265 119.514 18.3906 119.514 19.3331C119.514 20.2757 118.787 21.0398 117.89 21.0398Z" fill="#0011F8"/>
<path d="M111.767 20.7266C111.035 20.7266 110.441 20.1028 110.441 19.3333C110.441 18.5638 111.035 17.9399 111.767 17.9399C112.5 17.9399 113.094 18.5638 113.094 19.3333C113.094 20.1028 112.5 20.7266 111.767 20.7266Z" fill="#0011F8"/>
<path d="M106.443 20.1999C105.987 20.1999 105.618 19.8119 105.618 19.3332C105.618 18.8546 105.987 18.4666 106.443 18.4666C106.899 18.4666 107.268 18.8546 107.268 19.3332C107.268 19.8119 106.899 20.1999 106.443 20.1999Z" fill="#0011F8"/>
<path d="M124.591 8.66675C123.54 8.66675 122.687 9.56218 122.687 10.6667C122.687 11.7713 123.54 12.6667 124.591 12.6667C125.643 12.6667 126.495 11.7713 126.495 10.6667C126.495 9.56218 125.643 8.66675 124.591 8.66675Z" fill="#0011F8"/>
<path d="M117.89 8.9602C116.992 8.9602 116.265 9.7243 116.265 10.6669C116.265 11.6094 116.992 12.3735 117.89 12.3735C118.787 12.3735 119.514 11.6094 119.514 10.6669C119.514 9.7243 118.787 8.9602 117.89 8.9602Z" fill="#0011F8"/>
<path d="M111.767 9.27339C111.035 9.27339 110.441 9.89721 110.441 10.6667C110.441 11.4362 111.035 12.0601 111.767 12.0601C112.5 12.0601 113.094 11.4362 113.094 10.6667C113.094 9.89721 112.5 9.27339 111.767 9.27339Z" fill="#0011F8"/>
<path d="M106.443 9.80011C105.987 9.80011 105.618 10.1881 105.618 10.6668C105.618 11.1454 105.987 11.5334 106.443 11.5334C106.899 11.5334 107.268 11.1454 107.268 10.6668C107.268 10.1881 106.899 9.80011 106.443 9.80011Z" fill="#0011F8"/>
<path d="M120.779 25.6667C119.727 25.6667 118.875 24.7713 118.875 23.6667C118.875 22.5622 119.727 21.6667 120.779 21.6667C121.83 21.6667 122.683 22.5622 122.683 23.6667C122.683 24.7713 121.83 25.6667 120.779 25.6667Z" fill="#0011F8"/>
<path d="M114.077 25.3733C113.18 25.3733 112.452 24.6092 112.452 23.6666C112.452 22.7241 113.18 21.96 114.077 21.96C114.974 21.96 115.702 22.7241 115.702 23.6666C115.702 24.6092 114.974 25.3733 114.077 25.3733Z" fill="#0011F8"/>
<path d="M107.955 25.0601C107.222 25.0601 106.629 24.4363 106.629 23.6668C106.629 22.8973 107.222 22.2734 107.955 22.2734C108.687 22.2734 109.281 22.8973 109.281 23.6668C109.281 24.4363 108.687 25.0601 107.955 25.0601Z" fill="#0011F8"/>
<path d="M102.631 24.5334C102.175 24.5334 101.806 24.1454 101.806 23.6667C101.806 23.1881 102.175 22.8 102.631 22.8C103.086 22.8 103.456 23.1881 103.456 23.6667C103.456 24.1454 103.086 24.5334 102.631 24.5334Z" fill="#0011F8"/>
<path d="M120.779 4.33325C119.727 4.33325 118.875 5.22868 118.875 6.33325C118.875 7.43782 119.727 8.33325 120.779 8.33325C121.83 8.33325 122.683 7.43782 122.683 6.33325C122.683 5.22868 121.83 4.33325 120.779 4.33325Z" fill="#0011F8"/>
<path d="M114.077 4.6267C113.18 4.6267 112.452 5.3908 112.452 6.33337C112.452 7.27593 113.18 8.04004 114.077 8.04004C114.974 8.04004 115.702 7.27593 115.702 6.33337C115.702 5.3908 114.974 4.6267 114.077 4.6267Z" fill="#0011F8"/>
<path d="M107.955 4.9399C107.222 4.9399 106.629 5.56371 106.629 6.33323C106.629 7.10274 107.222 7.72656 107.955 7.72656C108.687 7.72656 109.281 7.10274 109.281 6.33323C109.281 5.56371 108.687 4.9399 107.955 4.9399Z" fill="#0011F8"/>
<path d="M102.631 5.46662C102.175 5.46662 101.806 5.85464 101.806 6.33328C101.806 6.81193 102.175 7.19995 102.631 7.19995C103.086 7.19995 103.456 6.81193 103.456 6.33328C103.456 5.85464 103.086 5.46662 102.631 5.46662Z" fill="#0011F8"/>
<path d="M116.974 30C115.923 30 115.07 29.1046 115.07 28C115.07 26.8954 115.923 26 116.974 26C118.026 26 118.878 26.8954 118.878 28C118.878 29.1046 118.026 30 116.974 30Z" fill="#0011F8"/>
<path d="M110.272 29.7065C109.375 29.7065 108.648 28.9424 108.648 27.9999C108.648 27.0573 109.375 26.2932 110.272 26.2932C111.17 26.2932 111.897 27.0573 111.897 27.9999C111.897 28.9424 111.17 29.7065 110.272 29.7065Z" fill="#0011F8"/>
<path d="M104.15 29.3934C103.418 29.3934 102.824 28.7695 102.824 28C102.824 27.2305 103.418 26.6067 104.15 26.6067C104.883 26.6067 105.477 27.2305 105.477 28C105.477 28.7695 104.883 29.3934 104.15 29.3934Z" fill="#0011F8"/>
<path d="M98.8259 28.8666C98.3702 28.8666 98.0009 28.4786 98.0009 28C98.0009 27.5213 98.3702 27.1333 98.8259 27.1333C99.2815 27.1333 99.6509 27.5213 99.6509 28C99.6509 28.4786 99.2815 28.8666 98.8259 28.8666Z" fill="#0011F8"/>
<path d="M116.974 0C115.923 0 115.07 0.89543 115.07 2C115.07 3.10457 115.923 4 116.974 4C118.026 4 118.878 3.10457 118.878 2C118.878 0.89543 118.026 0 116.974 0Z" fill="#0011F8"/>
<path d="M110.272 0.293452C109.375 0.293452 108.648 1.05755 108.648 2.00012C108.648 2.94268 109.375 3.70679 110.272 3.70679C111.17 3.70679 111.897 2.94268 111.897 2.00012C111.897 1.05755 111.17 0.293452 110.272 0.293452Z" fill="#0011F8"/>
<path d="M104.15 0.606644C103.418 0.606644 102.824 1.23046 102.824 1.99997C102.824 2.76949 103.418 3.39331 104.15 3.39331C104.883 3.39331 105.477 2.76949 105.477 1.99997C105.477 1.23046 104.883 0.606644 104.15 0.606644Z" fill="#0011F8"/>
<path d="M98.8259 1.13337C98.3702 1.13337 98.0009 1.52138 98.0009 2.00003C98.0009 2.47868 98.3702 2.8667 98.8259 2.8667C99.2815 2.8667 99.6509 2.47868 99.6509 2.00003C99.6509 1.52138 99.2815 1.13337 98.8259 1.13337Z" fill="#0011F8"/>
</svg>
