<svg width="33" height="30" viewBox="0 0 33 30" fill="none" xmlns="http://www.w3.org/2000/svg">
<path d="M31.0288 17C29.9773 17 29.1249 16.1046 29.1249 15C29.1249 13.8954 29.9773 13 31.0288 13C32.0802 13 32.9326 13.8954 32.9326 15C32.9326 16.1046 32.0802 17 31.0288 17Z" fill="#1515EC"/>
<path d="M24.327 16.7065C23.4298 16.7065 22.7024 15.9424 22.7024 14.9999C22.7024 14.0573 23.4298 13.2932 24.327 13.2932C25.2243 13.2932 25.9517 14.0573 25.9517 14.9999C25.9517 15.9424 25.2243 16.7065 24.327 16.7065Z" fill="#1515EC"/>
<path d="M18.2049 16.3934C17.4724 16.3934 16.8786 15.7695 16.8786 15C16.8786 14.2305 17.4724 13.6067 18.2049 13.6067C18.9374 13.6067 19.5312 14.2305 19.5312 15C19.5312 15.7695 18.9374 16.3934 18.2049 16.3934Z" fill="#1515EC"/>
<path d="M12.8806 15.8666C12.4249 15.8666 12.0556 15.4786 12.0556 15C12.0556 14.5213 12.4249 14.1333 12.8806 14.1333C13.3362 14.1333 13.7056 14.5213 13.7056 15C13.7056 15.4786 13.3362 15.8666 12.8806 15.8666Z" fill="#1515EC"/>
<path d="M26.5913 21.3333C25.5398 21.3333 24.6874 20.4378 24.6874 19.3333C24.6874 18.2287 25.5398 17.3333 26.5913 17.3333C27.6427 17.3333 28.4951 18.2287 28.4951 19.3333C28.4951 20.4378 27.6427 21.3333 26.5913 21.3333Z" fill="#1515EC"/>
<path d="M19.8895 21.0398C18.9923 21.0398 18.2649 20.2757 18.2649 19.3331C18.2649 18.3906 18.9923 17.6265 19.8895 17.6265C20.7868 17.6265 21.5142 18.3906 21.5142 19.3331C21.5142 20.2757 20.7868 21.0398 19.8895 21.0398Z" fill="#1515EC"/>
<path d="M13.7674 20.7266C13.0349 20.7266 12.4411 20.1028 12.4411 19.3333C12.4411 18.5638 13.0349 17.9399 13.7674 17.9399C14.4999 17.9399 15.0938 18.5638 15.0938 19.3333C15.0938 20.1028 14.4999 20.7266 13.7674 20.7266Z" fill="#1515EC"/>
<path d="M8.44306 20.1999C7.98743 20.1999 7.61807 19.8119 7.61807 19.3332C7.61807 18.8546 7.98743 18.4666 8.44306 18.4666C8.8987 18.4666 9.26807 18.8546 9.26807 19.3332C9.26807 19.8119 8.8987 20.1999 8.44306 20.1999Z" fill="#1515EC"/>
<path d="M26.5913 8.66675C25.5398 8.66675 24.6874 9.56218 24.6874 10.6667C24.6874 11.7713 25.5398 12.6667 26.5913 12.6667C27.6427 12.6667 28.4951 11.7713 28.4951 10.6667C28.4951 9.56218 27.6427 8.66675 26.5913 8.66675Z" fill="#1515EC"/>
<path d="M19.8895 8.9602C18.9923 8.9602 18.2649 9.7243 18.2649 10.6669C18.2649 11.6094 18.9923 12.3735 19.8895 12.3735C20.7868 12.3735 21.5142 11.6094 21.5142 10.6669C21.5142 9.7243 20.7868 8.9602 19.8895 8.9602Z" fill="#1515EC"/>
<path d="M13.7674 9.27339C13.0349 9.27339 12.4411 9.89721 12.4411 10.6667C12.4411 11.4362 13.0349 12.0601 13.7674 12.0601C14.4999 12.0601 15.0938 11.4362 15.0938 10.6667C15.0938 9.89721 14.4999 9.27339 13.7674 9.27339Z" fill="#1515EC"/>
<path d="M8.44306 9.80011C7.98743 9.80011 7.61807 10.1881 7.61807 10.6668C7.61807 11.1454 7.98743 11.5334 8.44306 11.5334C8.8987 11.5334 9.26807 11.1454 9.26807 10.6668C9.26807 10.1881 8.8987 9.80011 8.44306 9.80011Z" fill="#1515EC"/>
<path d="M22.7788 25.6667C21.7273 25.6667 20.8749 24.7713 20.8749 23.6667C20.8749 22.5622 21.7273 21.6667 22.7788 21.6667C23.8302 21.6667 24.6826 22.5622 24.6826 23.6667C24.6826 24.7713 23.8302 25.6667 22.7788 25.6667Z" fill="#1515EC"/>
<path d="M16.077 25.3733C15.1798 25.3733 14.4524 24.6092 14.4524 23.6666C14.4524 22.7241 15.1798 21.96 16.077 21.96C16.9743 21.96 17.7017 22.7241 17.7017 23.6666C17.7017 24.6092 16.9743 25.3733 16.077 25.3733Z" fill="#1515EC"/>
<path d="M9.95491 25.0601C9.22239 25.0601 8.62856 24.4363 8.62856 23.6668C8.62856 22.8973 9.22239 22.2734 9.95491 22.2734C10.6874 22.2734 11.2812 22.8973 11.2812 23.6668C11.2812 24.4363 10.6874 25.0601 9.95491 25.0601Z" fill="#1515EC"/>
<path d="M4.63056 24.5334C4.17493 24.5334 3.80557 24.1454 3.80557 23.6667C3.80557 23.1881 4.17493 22.8 4.63056 22.8C5.0862 22.8 5.45557 23.1881 5.45557 23.6667C5.45557 24.1454 5.0862 24.5334 4.63056 24.5334Z" fill="#1515EC"/>
<path d="M22.7788 4.33325C21.7273 4.33325 20.8749 5.22868 20.8749 6.33325C20.8749 7.43782 21.7273 8.33325 22.7788 8.33325C23.8302 8.33325 24.6826 7.43782 24.6826 6.33325C24.6826 5.22868 23.8302 4.33325 22.7788 4.33325Z" fill="#1515EC"/>
<path d="M16.077 4.6267C15.1798 4.6267 14.4524 5.3908 14.4524 6.33337C14.4524 7.27593 15.1798 8.04004 16.077 8.04004C16.9743 8.04004 17.7017 7.27593 17.7017 6.33337C17.7017 5.3908 16.9743 4.6267 16.077 4.6267Z" fill="#1515EC"/>
<path d="M9.95491 4.9399C9.22239 4.9399 8.62856 5.56371 8.62856 6.33323C8.62856 7.10274 9.22239 7.72656 9.95491 7.72656C10.6874 7.72656 11.2812 7.10274 11.2812 6.33323C11.2812 5.56371 10.6874 4.9399 9.95491 4.9399Z" fill="#1515EC"/>
<path d="M4.63056 5.46662C4.17493 5.46662 3.80557 5.85464 3.80557 6.33328C3.80557 6.81193 4.17493 7.19995 4.63056 7.19995C5.0862 7.19995 5.45557 6.81193 5.45557 6.33328C5.45557 5.85464 5.0862 5.46662 4.63056 5.46662Z" fill="#1515EC"/>
<path d="M18.9741 30C17.9226 30 17.0702 29.1046 17.0702 28C17.0702 26.8954 17.9226 26 18.9741 26C20.0255 26 20.8779 26.8954 20.8779 28C20.8779 29.1046 20.0255 30 18.9741 30Z" fill="#1515EC"/>
<path d="M12.2724 29.7065C11.3751 29.7065 10.6477 28.9424 10.6477 27.9999C10.6477 27.0573 11.3751 26.2932 12.2724 26.2932C13.1696 26.2932 13.897 27.0573 13.897 27.9999C13.897 28.9424 13.1696 29.7065 12.2724 29.7065Z" fill="#1515EC"/>
<path d="M6.15022 29.3934C5.4177 29.3934 4.82387 28.7695 4.82387 28C4.82387 27.2305 5.4177 26.6067 6.15022 26.6067C6.88274 26.6067 7.47656 27.2305 7.47656 28C7.47656 28.7695 6.88274 29.3934 6.15022 29.3934Z" fill="#1515EC"/>
<path d="M0.825877 28.8666C0.370242 28.8666 0.000884652 28.4786 0.000884652 28C0.000884652 27.5213 0.370242 27.1333 0.825877 27.1333C1.28151 27.1333 1.65088 27.5213 1.65088 28C1.65088 28.4786 1.28151 28.8666 0.825877 28.8666Z" fill="#1515EC"/>
<path d="M18.9741 0C17.9226 0 17.0702 0.89543 17.0702 2C17.0702 3.10457 17.9226 4 18.9741 4C20.0255 4 20.8779 3.10457 20.8779 2C20.8779 0.89543 20.0255 0 18.9741 0Z" fill="#1515EC"/>
<path d="M12.2724 0.293452C11.3751 0.293452 10.6477 1.05755 10.6477 2.00012C10.6477 2.94268 11.3751 3.70679 12.2724 3.70679C13.1696 3.70679 13.897 2.94268 13.897 2.00012C13.897 1.05755 13.1696 0.293452 12.2724 0.293452Z" fill="#1515EC"/>
<path d="M6.15022 0.606644C5.4177 0.606644 4.82387 1.23046 4.82387 1.99997C4.82387 2.76949 5.4177 3.39331 6.15022 3.39331C6.88274 3.39331 7.47656 2.76949 7.47656 1.99997C7.47656 1.23046 6.88274 0.606644 6.15022 0.606644Z" fill="#1515EC"/>
<path d="M0.825877 1.13337C0.370242 1.13337 0.000884652 1.52138 0.000884652 2.00003C0.000884652 2.47868 0.370242 2.8667 0.825877 2.8667C1.28151 2.8667 1.65088 2.47868 1.65088 2.00003C1.65088 1.52138 1.28151 1.13337 0.825877 1.13337Z" fill="#1515EC"/>
</svg>
